<svg xmlns="http://www.w3.org/2000/svg" xmlns:xlink="http://www.w3.org/1999/xlink" width="500" zoomAndPan="magnify" viewBox="0 0 375 187.499995" height="250" preserveAspectRatio="xMidYMid meet" version="1.0"><defs><g/><clipPath id="0f4bc6fde2"><path d="M 50 144 L 325 144 L 325 157.679688 L 50 157.679688 Z M 50 144 " clip-rule="nonzero"/></clipPath><clipPath id="8420c354ab"><rect x="0" width="352" y="0" height="174"/></clipPath></defs><g clip-path="url(#0f4bc6fde2)"><path fill="#000000" d="M 324.410156 152.382812 C 324.28125 149.34375 323.15625 146.964844 321.109375 146.898438 C 317.542969 146.769531 313.976562 145.449219 310.410156 146.042969 C 306.578125 146.703125 302.945312 146.109375 299.25 145.117188 C 298.523438 144.917969 297.863281 144.65625 297.203125 145.050781 C 295.484375 146.175781 293.699219 145.578125 291.917969 145.382812 C 289.277344 145.117188 286.699219 143.929688 284.058594 145.578125 C 283.660156 145.84375 283 145.644531 282.472656 145.511719 C 275.40625 143.464844 268.207031 145.117188 261.074219 144.917969 C 259.355469 146.109375 257.574219 144.65625 255.855469 144.984375 C 253.875 145.382812 251.960938 145.382812 249.976562 145.183594 C 246.609375 144.917969 243.175781 144.125 239.875 145.710938 C 239.277344 145.976562 238.488281 145.84375 237.761719 145.84375 C 234.722656 145.910156 231.683594 145.84375 228.644531 146.109375 C 226.996094 146.238281 225.476562 146.371094 224.023438 145.25 C 223.230469 144.589844 222.304688 144.984375 221.445312 145.25 C 218.210938 146.304688 214.050781 147.097656 211.605469 146.503906 C 209.558594 146.042969 207.710938 146.171875 205.726562 146.570312 C 204.339844 146.835938 202.886719 146.964844 201.433594 147.03125 C 185.054688 147.496094 168.675781 148.023438 152.296875 149.078125 C 143.84375 149.609375 135.390625 150.003906 126.933594 150.46875 C 123.699219 150.664062 120.460938 151.191406 117.226562 151.257812 C 105.339844 151.589844 93.449219 151.589844 81.5625 152.449219 C 77.929688 152.710938 74.496094 153.703125 70.863281 153.96875 C 64.785156 154.496094 58.644531 155.289062 52.566406 155.949219 C 51.707031 156.082031 50.851562 156.277344 50.519531 157.46875 C 58.113281 157.003906 65.644531 156.34375 73.109375 156.082031 C 79.382812 155.816406 85.65625 155.949219 91.929688 155.949219 C 96.421875 155.949219 100.914062 156.015625 105.402344 155.882812 C 113 155.683594 120.527344 155.089844 128.125 155.089844 C 132.484375 155.089844 136.777344 154.824219 141.070312 154.5625 C 145.558594 154.296875 150.050781 154.496094 154.476562 154.230469 C 168.28125 153.4375 182.082031 152.710938 195.953125 153.308594 C 198.398438 152.25 200.972656 153.769531 203.417969 153.109375 C 206.851562 152.117188 210.152344 152.183594 213.585938 152.976562 C 214.578125 153.242188 215.765625 153.042969 216.824219 152.976562 C 219.863281 152.777344 222.898438 152.515625 225.9375 152.382812 C 234.0625 151.984375 242.117188 151.984375 250.175781 153.175781 C 250.703125 153.242188 251.367188 153.4375 251.761719 153.175781 C 254.800781 151.523438 258.035156 153.109375 261.207031 152.515625 C 263.320312 152.117188 265.894531 152.183594 268.140625 152.582031 C 272.167969 153.308594 276.199219 153.109375 280.226562 153.570312 C 282.804688 153.902344 285.179688 152.976562 287.691406 153.042969 C 291.457031 153.175781 295.285156 153.175781 299.050781 153.371094 C 304.597656 153.636719 310.210938 153.570312 315.695312 154.628906 C 317.875 155.089844 319.988281 154.890625 322.167969 154.824219 C 324.214844 154.695312 324.476562 154.296875 324.410156 152.382812 Z M 324.410156 152.382812 " fill-opacity="1" fill-rule="nonzero"/></g><g transform="matrix(1, 0, 0, 1, 19, 12)"><g clip-path="url(#8420c354ab)"><g fill="#8e51ff" fill-opacity="1"><g transform="translate(0.198807, 127.591462)"><g><path d="M 78.34375 -30 C 78.539062 -30.0625 78.867188 -30.09375 79.328125 -30.09375 C 80.316406 -30.09375 81.070312 -29.765625 81.59375 -29.109375 C 82.125 -28.453125 82.390625 -27.5625 82.390625 -26.4375 C 82.390625 -24.40625 81.992188 -22.8125 81.203125 -21.65625 C 80.410156 -20.507812 79.226562 -19.671875 77.65625 -19.140625 C 74.625 -18.148438 71.398438 -17.65625 67.984375 -17.65625 C 65.085938 -17.65625 62.359375 -18.050781 59.796875 -18.84375 C 57.890625 -15.75 55.785156 -12.5625 53.484375 -9.28125 C 50.847656 -5.53125 48.59375 -2.960938 46.71875 -1.578125 C 44.84375 -0.191406 42.722656 0.5 40.359375 0.5 C 37.722656 0.5 35.726562 -0.519531 34.375 -2.5625 C 33.03125 -4.601562 32.195312 -7.957031 31.875 -12.625 L 31.375 -19.828125 C 29.332031 -14.304688 27.503906 -10.097656 25.890625 -7.203125 C 24.285156 -4.304688 22.675781 -2.296875 21.0625 -1.171875 C 19.457031 -0.0546875 17.566406 0.5 15.390625 0.5 C 12.691406 0.5 10.566406 -0.550781 9.015625 -2.65625 C 7.472656 -4.769531 6.507812 -8.09375 6.125 -12.625 C 5.332031 -21.832031 4.9375 -29.890625 4.9375 -36.796875 L 4.9375 -40.265625 C 5 -42.429688 5.585938 -43.941406 6.703125 -44.796875 C 7.828125 -45.648438 9.503906 -46.078125 11.734375 -46.078125 C 13.453125 -46.078125 14.722656 -45.695312 15.546875 -44.9375 C 16.367188 -44.1875 16.78125 -42.921875 16.78125 -41.140625 C 16.78125 -33.578125 17.238281 -23.742188 18.15625 -11.640625 C 22.625 -21.046875 26.734375 -30.847656 30.484375 -41.046875 C 31.210938 -43.015625 32.085938 -44.34375 33.109375 -45.03125 C 34.128906 -45.726562 35.359375 -46.078125 36.796875 -46.078125 C 38.578125 -46.078125 39.8125 -45.710938 40.5 -44.984375 C 41.195312 -44.265625 41.546875 -42.984375 41.546875 -41.140625 C 41.546875 -33.578125 42.003906 -23.742188 42.921875 -11.640625 C 46.867188 -17.492188 49.828125 -22.164062 51.796875 -25.65625 C 50.816406 -27.5625 50.328125 -29.832031 50.328125 -32.46875 C 50.328125 -34.695312 50.816406 -36.863281 51.796875 -38.96875 C 52.785156 -41.082031 54.132812 -42.796875 55.84375 -44.109375 C 57.550781 -45.421875 59.492188 -46.078125 61.671875 -46.078125 C 63.578125 -46.078125 65.117188 -45.398438 66.296875 -44.046875 C 67.484375 -42.703125 68.078125 -40.75 68.078125 -38.1875 C 68.078125 -35.226562 67.289062 -31.835938 65.71875 -28.015625 C 68.21875 -28.148438 71.539062 -28.644531 75.6875 -29.5 Z M 78.34375 -30 "/></g></g></g><g fill="#8e51ff" fill-opacity="1"><g transform="translate(69.257796, 127.591462)"><g><path d="M 48.75 -22 C 49.601562 -22 50.273438 -21.601562 50.765625 -20.8125 C 51.253906 -20.03125 51.5 -18.945312 51.5 -17.5625 C 51.5 -14.925781 50.875 -12.890625 49.625 -11.453125 C 47.195312 -8.484375 43.757812 -5.75 39.3125 -3.25 C 34.875 -0.75 30.125 0.5 25.0625 0.5 C 18.15625 0.5 12.789062 -1.375 8.96875 -5.125 C 5.15625 -8.875 3.25 -14.007812 3.25 -20.53125 C 3.25 -25.0625 4.203125 -29.285156 6.109375 -33.203125 C 8.023438 -37.117188 10.675781 -40.226562 14.0625 -42.53125 C 17.445312 -44.832031 21.28125 -45.984375 25.5625 -45.984375 C 29.375 -45.984375 32.429688 -44.847656 34.734375 -42.578125 C 37.035156 -40.304688 38.1875 -37.226562 38.1875 -33.34375 C 38.1875 -28.8125 36.554688 -24.914062 33.296875 -21.65625 C 30.046875 -18.40625 24.539062 -15.820312 16.78125 -13.90625 C 18.414062 -10.882812 21.535156 -9.375 26.140625 -9.375 C 29.109375 -9.375 32.484375 -10.410156 36.265625 -12.484375 C 40.046875 -14.554688 43.316406 -17.269531 46.078125 -20.625 C 46.867188 -21.539062 47.757812 -22 48.75 -22 Z M 23.875 -36.3125 C 21.445312 -36.3125 19.394531 -34.894531 17.71875 -32.0625 C 16.039062 -29.238281 15.203125 -25.820312 15.203125 -21.8125 L 15.203125 -21.609375 C 19.078125 -22.523438 22.132812 -23.90625 24.375 -25.75 C 26.613281 -27.59375 27.734375 -29.734375 27.734375 -32.171875 C 27.734375 -33.421875 27.382812 -34.421875 26.6875 -35.171875 C 26 -35.929688 25.0625 -36.3125 23.875 -36.3125 Z M 23.875 -36.3125 "/></g></g></g><g fill="#8e51ff" fill-opacity="1"><g transform="translate(108.029497, 127.591462)"><g><path d="M 57.234375 -30.296875 C 58.085938 -30.296875 58.742188 -29.867188 59.203125 -29.015625 C 59.660156 -28.160156 59.890625 -27.070312 59.890625 -25.75 C 59.890625 -24.101562 59.660156 -22.835938 59.203125 -21.953125 C 58.742188 -21.066406 58.019531 -20.457031 57.03125 -20.125 C 53.082031 -18.75 48.738281 -17.960938 44 -17.765625 C 42.6875 -12.304688 40.203125 -7.894531 36.546875 -4.53125 C 32.898438 -1.175781 28.875 0.5 24.46875 0.5 C 17.820312 0.5 12.984375 -2.03125 9.953125 -7.09375 C 6.929688 -12.164062 5.421875 -19.503906 5.421875 -29.109375 C 5.421875 -37.597656 6.472656 -46.820312 8.578125 -56.78125 C 10.679688 -66.75 13.753906 -75.234375 17.796875 -82.234375 C 21.847656 -89.242188 26.671875 -92.75 32.265625 -92.75 C 35.285156 -92.75 37.71875 -91.445312 39.5625 -88.84375 C 41.40625 -86.25 42.328125 -82.878906 42.328125 -78.734375 C 42.328125 -73.347656 41.304688 -67.988281 39.265625 -62.65625 C 37.234375 -57.332031 33.847656 -51.738281 29.109375 -45.875 C 33.515625 -45.550781 37.097656 -43.726562 39.859375 -40.40625 C 42.617188 -37.082031 44.265625 -32.988281 44.796875 -28.125 C 47.890625 -28.320312 51.570312 -28.976562 55.84375 -30.09375 C 56.238281 -30.226562 56.703125 -30.296875 57.234375 -30.296875 Z M 30 -82.984375 C 28.675781 -82.984375 27.242188 -81.023438 25.703125 -77.109375 C 24.160156 -73.191406 22.726562 -67.878906 21.40625 -61.171875 C 20.09375 -54.460938 19.109375 -47.128906 18.453125 -39.171875 C 22.796875 -47.128906 26.265625 -54.148438 28.859375 -60.234375 C 31.460938 -66.316406 32.765625 -71.726562 32.765625 -76.46875 C 32.765625 -78.570312 32.515625 -80.179688 32.015625 -81.296875 C 31.523438 -82.421875 30.851562 -82.984375 30 -82.984375 Z M 24.859375 -9.96875 C 26.898438 -9.96875 28.707031 -10.820312 30.28125 -12.53125 C 31.863281 -14.238281 32.921875 -16.707031 33.453125 -19.9375 C 31.410156 -21.3125 29.847656 -23.117188 28.765625 -25.359375 C 27.679688 -27.597656 27.140625 -29.96875 27.140625 -32.46875 C 27.140625 -33.382812 27.269531 -34.632812 27.53125 -36.21875 L 27.234375 -36.21875 C 24.535156 -36.21875 22.28125 -34.882812 20.46875 -32.21875 C 18.664062 -29.550781 17.765625 -25.984375 17.765625 -21.515625 C 17.765625 -17.765625 18.46875 -14.898438 19.875 -12.921875 C 21.289062 -10.953125 22.953125 -9.96875 24.859375 -9.96875 Z M 24.859375 -9.96875 "/></g></g></g><g fill="#8e51ff" fill-opacity="1"><g transform="translate(154.693645, 127.591462)"><g><path d="M 44.109375 -27.625 C 45.953125 -27.625 46.875 -26.242188 46.875 -23.484375 C 46.875 -18.285156 42.796875 -15.6875 34.640625 -15.6875 C 33.054688 -15.6875 30.785156 -15.984375 27.828125 -16.578125 C 28.679688 -12.492188 29.382812 -7.96875 29.9375 -3 C 30.5 1.957031 30.78125 6.050781 30.78125 9.28125 C 30.78125 16.382812 29.628906 21.8125 27.328125 25.5625 C 25.023438 29.3125 22 31.1875 18.25 31.1875 C 13.519531 31.1875 10.148438 27.828125 8.140625 21.109375 C 6.128906 14.398438 5.125 4.269531 5.125 -9.28125 C 5.125 -21.90625 6.488281 -34.710938 9.21875 -47.703125 C 11.957031 -60.703125 15.707031 -71.457031 20.46875 -79.96875 C 25.238281 -88.488281 30.488281 -92.75 36.21875 -92.75 C 39.300781 -92.75 41.710938 -91.367188 43.453125 -88.609375 C 45.203125 -85.847656 46.078125 -82.128906 46.078125 -77.453125 C 46.078125 -61.992188 36.835938 -45.15625 18.359375 -26.9375 C 17.691406 -20.488281 17.359375 -14.832031 17.359375 -9.96875 C 17.359375 -3.1875 17.585938 3.769531 18.046875 10.90625 C 18.515625 18.039062 19.273438 21.609375 20.328125 21.609375 C 22.296875 21.609375 23.28125 18.1875 23.28125 11.34375 C 23.28125 6.21875 22.9375 1.253906 22.25 -3.546875 C 21.5625 -8.347656 20.625 -13.414062 19.4375 -18.75 C 19.375 -19.601562 19.65625 -20.6875 20.28125 -22 C 20.90625 -23.320312 21.675781 -24.472656 22.59375 -25.453125 C 23.519531 -26.441406 24.34375 -26.9375 25.0625 -26.9375 C 26.375 -26.9375 27.953125 -26.867188 29.796875 -26.734375 C 30.390625 -26.671875 31.082031 -26.640625 31.875 -26.640625 C 34.5 -26.640625 37.425781 -26.867188 40.65625 -27.328125 C 41.175781 -27.398438 41.734375 -27.46875 42.328125 -27.53125 C 42.921875 -27.59375 43.515625 -27.625 44.109375 -27.625 Z M 34.140625 -82.984375 C 32.953125 -82.984375 31.488281 -80.972656 29.75 -76.953125 C 28.007812 -72.941406 26.28125 -67.628906 24.5625 -61.015625 C 22.851562 -54.410156 21.375 -47.425781 20.125 -40.0625 C 25.382812 -46.050781 29.429688 -52.285156 32.265625 -58.765625 C 35.097656 -65.242188 36.546875 -71.3125 36.609375 -76.96875 C 36.609375 -80.976562 35.785156 -82.984375 34.140625 -82.984375 Z M 34.140625 -82.984375 "/></g></g></g><g fill="#8e51ff" fill-opacity="1"><g transform="translate(191.294898, 127.591462)"><g><path d="M 55.0625 -30.296875 C 55.914062 -30.296875 56.570312 -29.867188 57.03125 -29.015625 C 57.488281 -28.160156 57.71875 -27.070312 57.71875 -25.75 C 57.71875 -22.59375 56.765625 -20.71875 54.859375 -20.125 C 50.910156 -18.75 46.570312 -17.960938 41.84375 -17.765625 C 40.59375 -12.234375 38.125 -7.804688 34.4375 -4.484375 C 30.75 -1.160156 26.570312 0.5 21.90625 0.5 C 17.957031 0.5 14.582031 -0.453125 11.78125 -2.359375 C 8.988281 -4.273438 6.867188 -6.8125 5.421875 -9.96875 C 3.972656 -13.125 3.25 -16.546875 3.25 -20.234375 C 3.25 -25.234375 4.203125 -29.6875 6.109375 -33.59375 C 8.023438 -37.507812 10.660156 -40.566406 14.015625 -42.765625 C 17.367188 -44.972656 21.082031 -46.078125 25.15625 -46.078125 C 30.15625 -46.078125 34.1875 -44.347656 37.25 -40.890625 C 40.3125 -37.441406 42.101562 -33.1875 42.625 -28.125 C 45.71875 -28.320312 49.398438 -28.976562 53.671875 -30.09375 C 54.203125 -30.226562 54.664062 -30.296875 55.0625 -30.296875 Z M 22.6875 -9.96875 C 24.800781 -9.96875 26.628906 -10.820312 28.171875 -12.53125 C 29.710938 -14.238281 30.75 -16.707031 31.28125 -19.9375 C 29.238281 -21.3125 27.675781 -23.117188 26.59375 -25.359375 C 25.507812 -27.597656 24.96875 -29.96875 24.96875 -32.46875 C 24.96875 -33.519531 25.066406 -34.570312 25.265625 -35.625 L 24.765625 -35.625 C 22.128906 -35.625 19.941406 -34.351562 18.203125 -31.8125 C 16.460938 -29.28125 15.59375 -25.710938 15.59375 -21.109375 C 15.59375 -17.492188 16.296875 -14.734375 17.703125 -12.828125 C 19.117188 -10.921875 20.78125 -9.96875 22.6875 -9.96875 Z M 22.6875 -9.96875 "/></g></g></g><g fill="#8e51ff" fill-opacity="1"><g transform="translate(235.788634, 127.591462)"><g><path d="M 42.140625 -22 C 42.992188 -22 43.664062 -21.601562 44.15625 -20.8125 C 44.644531 -20.03125 44.890625 -18.945312 44.890625 -17.5625 C 44.890625 -14.925781 44.265625 -12.890625 43.015625 -11.453125 C 40.191406 -7.960938 37.117188 -5.097656 33.796875 -2.859375 C 30.472656 -0.617188 26.707031 0.5 22.5 0.5 C 16.707031 0.5 12.410156 -2.128906 9.609375 -7.390625 C 6.816406 -12.660156 5.421875 -19.472656 5.421875 -27.828125 C 5.421875 -35.847656 6.457031 -44.988281 8.53125 -55.25 C 10.601562 -65.519531 13.660156 -74.335938 17.703125 -81.703125 C 21.753906 -89.066406 26.578125 -92.75 32.171875 -92.75 C 35.328125 -92.75 37.804688 -91.285156 39.609375 -88.359375 C 41.421875 -85.429688 42.328125 -81.238281 42.328125 -75.78125 C 42.328125 -67.945312 40.15625 -58.867188 35.8125 -48.546875 C 31.476562 -38.222656 25.59375 -27.992188 18.15625 -17.859375 C 18.613281 -15.160156 19.367188 -13.234375 20.421875 -12.078125 C 21.472656 -10.929688 22.851562 -10.359375 24.5625 -10.359375 C 27.257812 -10.359375 29.628906 -11.128906 31.671875 -12.671875 C 33.710938 -14.222656 36.3125 -16.875 39.46875 -20.625 C 40.257812 -21.539062 41.148438 -22 42.140625 -22 Z M 30 -82.984375 C 28.488281 -82.984375 26.773438 -80.253906 24.859375 -74.796875 C 22.953125 -69.335938 21.273438 -62.5625 19.828125 -54.46875 C 18.378906 -46.375 17.59375 -38.613281 17.46875 -31.1875 C 22.132812 -38.875 25.847656 -46.582031 28.609375 -54.3125 C 31.378906 -62.039062 32.765625 -69.097656 32.765625 -75.484375 C 32.765625 -80.484375 31.84375 -82.984375 30 -82.984375 Z M 30 -82.984375 "/></g></g></g><g fill="#8e51ff" fill-opacity="1"><g transform="translate(267.950387, 127.591462)"><g><path d="M 17.65625 -52.5 C 14.894531 -52.5 12.820312 -53.140625 11.4375 -54.421875 C 10.0625 -55.703125 9.375 -57.492188 9.375 -59.796875 C 9.375 -62.097656 10.273438 -64.019531 12.078125 -65.5625 C 13.890625 -67.113281 16.144531 -67.890625 18.84375 -67.890625 C 21.28125 -67.890625 23.253906 -67.296875 24.765625 -66.109375 C 26.273438 -64.921875 27.03125 -63.242188 27.03125 -61.078125 C 27.03125 -58.441406 26.175781 -56.351562 24.46875 -54.8125 C 22.757812 -53.269531 20.488281 -52.5 17.65625 -52.5 Z M 16.875 0.5 C 12.59375 0.5 9.484375 -1.007812 7.546875 -4.03125 C 5.609375 -7.0625 4.640625 -11.078125 4.640625 -16.078125 C 4.640625 -19.046875 5.015625 -22.847656 5.765625 -27.484375 C 6.523438 -32.117188 7.5 -36.441406 8.6875 -40.453125 C 9.28125 -42.554688 10.066406 -44.003906 11.046875 -44.796875 C 12.035156 -45.585938 13.613281 -45.984375 15.78125 -45.984375 C 19.132812 -45.984375 20.8125 -44.863281 20.8125 -42.625 C 20.8125 -40.976562 20.1875 -37.164062 18.9375 -31.1875 C 17.363281 -23.945312 16.578125 -19.046875 16.578125 -16.484375 C 16.578125 -14.503906 16.835938 -12.988281 17.359375 -11.9375 C 17.890625 -10.882812 18.78125 -10.359375 20.03125 -10.359375 C 21.21875 -10.359375 22.695312 -11.179688 24.46875 -12.828125 C 26.25 -14.472656 28.617188 -17.070312 31.578125 -20.625 C 32.367188 -21.539062 33.253906 -22 34.234375 -22 C 35.085938 -22 35.757812 -21.601562 36.25 -20.8125 C 36.75 -20.03125 37 -18.945312 37 -17.5625 C 37 -14.925781 36.375 -12.890625 35.125 -11.453125 C 28.613281 -3.484375 22.53125 0.5 16.875 0.5 Z M 16.875 0.5 "/></g></g></g><g fill="#8e51ff" fill-opacity="1"><g transform="translate(292.219694, 127.591462)"><g><path d="M 55.0625 -30.296875 C 55.914062 -30.296875 56.570312 -29.867188 57.03125 -29.015625 C 57.488281 -28.160156 57.71875 -27.070312 57.71875 -25.75 C 57.71875 -22.59375 56.765625 -20.71875 54.859375 -20.125 C 50.910156 -18.75 46.570312 -17.960938 41.84375 -17.765625 C 40.59375 -12.234375 38.125 -7.804688 34.4375 -4.484375 C 30.75 -1.160156 26.570312 0.5 21.90625 0.5 C 17.957031 0.5 14.582031 -0.453125 11.78125 -2.359375 C 8.988281 -4.273438 6.867188 -6.8125 5.421875 -9.96875 C 3.972656 -13.125 3.25 -16.546875 3.25 -20.234375 C 3.25 -25.234375 4.203125 -29.6875 6.109375 -33.59375 C 8.023438 -37.507812 10.660156 -40.566406 14.015625 -42.765625 C 17.367188 -44.972656 21.082031 -46.078125 25.15625 -46.078125 C 30.15625 -46.078125 34.1875 -44.347656 37.25 -40.890625 C 40.3125 -37.441406 42.101562 -33.1875 42.625 -28.125 C 45.71875 -28.320312 49.398438 -28.976562 53.671875 -30.09375 C 54.203125 -30.226562 54.664062 -30.296875 55.0625 -30.296875 Z M 22.6875 -9.96875 C 24.800781 -9.96875 26.628906 -10.820312 28.171875 -12.53125 C 29.710938 -14.238281 30.75 -16.707031 31.28125 -19.9375 C 29.238281 -21.3125 27.675781 -23.117188 26.59375 -25.359375 C 25.507812 -27.597656 24.96875 -29.96875 24.96875 -32.46875 C 24.96875 -33.519531 25.066406 -34.570312 25.265625 -35.625 L 24.765625 -35.625 C 22.128906 -35.625 19.941406 -34.351562 18.203125 -31.8125 C 16.460938 -29.28125 15.59375 -25.710938 15.59375 -21.109375 C 15.59375 -17.492188 16.296875 -14.734375 17.703125 -12.828125 C 19.117188 -10.921875 20.78125 -9.96875 22.6875 -9.96875 Z M 22.6875 -9.96875 "/></g></g></g></g></g></svg>