<svg xmlns="http://www.w3.org/2000/svg" xmlns:xlink="http://www.w3.org/1999/xlink" width="400" zoomAndPan="magnify" viewBox="0 0 300 112.499997" height="150" preserveAspectRatio="xMidYMid meet" version="1.0"><defs><g/><clipPath id="6abfba81e7"><path d="M 23 0 L 288 0 L 288 112.003906 L 23 112.003906 Z M 23 0 " clip-rule="nonzero"/></clipPath><clipPath id="fd0ed3ec37"><path d="M 24 90 L 230 90 L 230 99.671875 L 24 99.671875 Z M 24 90 " clip-rule="nonzero"/></clipPath><clipPath id="42d80ab1be"><path d="M 0.601562 0 L 264.628906 0 L 264.628906 112.003906 L 0.601562 112.003906 Z M 0.601562 0 " clip-rule="nonzero"/></clipPath><clipPath id="60f20f4c71"><rect x="0" width="265" y="0" height="113"/></clipPath><clipPath id="524dfa96f4"><rect x="0" width="265" y="0" height="113"/></clipPath></defs><g clip-path="url(#6abfba81e7)"><g transform="matrix(1, 0, 0, 1, 23, 0)"><g clip-path="url(#524dfa96f4)"><g clip-path="url(#fd0ed3ec37)"><path fill="#727272" d="M 229.695312 95.976562 C 229.59375 93.695312 228.753906 91.914062 227.21875 91.863281 C 224.542969 91.765625 221.867188 90.773438 219.191406 91.21875 C 216.320312 91.714844 213.59375 91.269531 210.820312 90.527344 C 210.273438 90.375 209.777344 90.179688 209.285156 90.476562 C 207.996094 91.316406 206.65625 90.871094 205.320312 90.722656 C 203.339844 90.527344 201.40625 89.632812 199.425781 90.871094 C 199.128906 91.070312 198.632812 90.921875 198.234375 90.824219 C 192.933594 89.285156 187.535156 90.527344 182.183594 90.375 C 180.898438 91.269531 179.558594 90.179688 178.269531 90.425781 C 176.785156 90.722656 175.347656 90.722656 173.863281 90.574219 C 171.335938 90.375 168.757812 89.78125 166.28125 90.972656 C 165.835938 91.167969 165.242188 91.070312 164.695312 91.070312 C 162.417969 91.121094 160.140625 91.070312 157.859375 91.269531 C 156.621094 91.367188 155.480469 91.464844 154.390625 90.625 C 153.796875 90.128906 153.105469 90.425781 152.460938 90.625 C 150.03125 91.417969 146.910156 92.011719 145.078125 91.566406 C 143.542969 91.21875 142.15625 91.316406 140.667969 91.617188 C 139.628906 91.8125 138.539062 91.914062 137.449219 91.960938 C 125.164062 92.308594 112.875 92.707031 100.589844 93.496094 C 94.25 93.894531 87.90625 94.191406 81.566406 94.539062 C 79.140625 94.6875 76.710938 95.082031 74.285156 95.132812 C 65.367188 95.378906 56.449219 95.378906 47.53125 96.023438 C 44.808594 96.222656 42.230469 96.964844 39.507812 97.164062 C 34.949219 97.558594 30.339844 98.15625 25.785156 98.648438 C 25.140625 98.75 24.496094 98.898438 24.246094 99.789062 C 29.945312 99.441406 35.59375 98.949219 41.191406 98.75 C 45.898438 98.550781 50.601562 98.648438 55.308594 98.648438 C 58.679688 98.648438 62.046875 98.699219 65.417969 98.601562 C 71.113281 98.453125 76.761719 98.007812 82.457031 98.007812 C 85.726562 98.007812 88.949219 97.808594 92.167969 97.609375 C 95.539062 97.410156 98.90625 97.558594 102.226562 97.363281 C 112.578125 96.769531 122.933594 96.222656 133.335938 96.667969 C 135.171875 95.875 137.101562 97.015625 138.933594 96.519531 C 141.511719 95.777344 143.988281 95.828125 146.566406 96.421875 C 147.308594 96.617188 148.199219 96.46875 148.992188 96.421875 C 151.269531 96.273438 153.550781 96.074219 155.828125 95.976562 C 161.921875 95.675781 167.964844 95.675781 174.011719 96.570312 C 174.40625 96.617188 174.902344 96.769531 175.199219 96.570312 C 177.476562 95.332031 179.90625 96.519531 182.285156 96.074219 C 183.871094 95.777344 185.800781 95.828125 187.484375 96.125 C 190.507812 96.667969 193.53125 96.519531 196.550781 96.867188 C 198.484375 97.113281 200.265625 96.421875 202.148438 96.46875 C 204.972656 96.570312 207.847656 96.570312 210.671875 96.71875 C 214.832031 96.917969 219.042969 96.867188 223.15625 97.660156 C 224.789062 98.007812 226.375 97.859375 228.011719 97.808594 C 229.546875 97.707031 229.746094 97.410156 229.695312 95.976562 Z M 229.695312 95.976562 " fill-opacity="1" fill-rule="nonzero"/></g><g clip-path="url(#42d80ab1be)"><g><g clip-path="url(#60f20f4c71)"><g fill="#7f22fe" fill-opacity="1"><g transform="translate(0.701474, 86.37893)"><g><path d="M 58.796875 -22.515625 C 58.941406 -22.554688 59.1875 -22.578125 59.53125 -22.578125 C 60.269531 -22.578125 60.835938 -22.332031 61.234375 -21.84375 C 61.628906 -21.351562 61.828125 -20.6875 61.828125 -19.84375 C 61.828125 -18.3125 61.53125 -17.113281 60.9375 -16.25 C 60.34375 -15.382812 59.457031 -14.753906 58.28125 -14.359375 C 56.007812 -13.617188 53.585938 -13.25 51.015625 -13.25 C 48.847656 -13.25 46.800781 -13.546875 44.875 -14.140625 C 43.4375 -11.816406 41.859375 -9.421875 40.140625 -6.953125 C 38.160156 -4.140625 36.46875 -2.210938 35.0625 -1.171875 C 33.65625 -0.140625 32.0625 0.375 30.28125 0.375 C 28.3125 0.375 26.816406 -0.390625 25.796875 -1.921875 C 24.785156 -3.453125 24.160156 -5.972656 23.921875 -9.484375 L 23.546875 -14.890625 C 22.015625 -10.734375 20.644531 -7.566406 19.4375 -5.390625 C 18.226562 -3.222656 17.019531 -1.71875 15.8125 -0.875 C 14.601562 -0.0390625 13.179688 0.375 11.546875 0.375 C 9.523438 0.375 7.929688 -0.414062 6.765625 -2 C 5.609375 -3.582031 4.882812 -6.078125 4.59375 -9.484375 C 4 -16.390625 3.703125 -22.4375 3.703125 -27.625 L 3.703125 -30.21875 C 3.753906 -31.84375 4.195312 -32.972656 5.03125 -33.609375 C 5.875 -34.253906 7.132812 -34.578125 8.8125 -34.578125 C 10.09375 -34.578125 11.039062 -34.289062 11.65625 -33.71875 C 12.28125 -33.15625 12.59375 -32.207031 12.59375 -30.875 C 12.59375 -25.195312 12.9375 -17.816406 13.625 -8.734375 C 16.976562 -15.796875 20.0625 -23.148438 22.875 -30.796875 C 23.414062 -32.285156 24.066406 -33.285156 24.828125 -33.796875 C 25.597656 -34.316406 26.53125 -34.578125 27.625 -34.578125 C 28.957031 -34.578125 29.878906 -34.304688 30.390625 -33.765625 C 30.910156 -33.222656 31.171875 -32.257812 31.171875 -30.875 C 31.171875 -25.195312 31.515625 -17.816406 32.203125 -8.734375 C 35.171875 -13.128906 37.394531 -16.632812 38.875 -19.25 C 38.132812 -20.6875 37.765625 -22.390625 37.765625 -24.359375 C 37.765625 -26.035156 38.132812 -27.664062 38.875 -29.25 C 39.613281 -30.832031 40.625 -32.113281 41.90625 -33.09375 C 43.1875 -34.082031 44.644531 -34.578125 46.28125 -34.578125 C 47.707031 -34.578125 48.863281 -34.070312 49.75 -33.0625 C 50.644531 -32.050781 51.09375 -30.582031 51.09375 -28.65625 C 51.09375 -26.4375 50.5 -23.894531 49.3125 -21.03125 C 51.1875 -21.125 53.679688 -21.492188 56.796875 -22.140625 Z M 58.796875 -22.515625 "/></g></g></g><g fill="#7f22fe" fill-opacity="1"><g transform="translate(52.53356, 86.37893)"><g><path d="M 36.578125 -16.515625 C 37.222656 -16.515625 37.726562 -16.21875 38.09375 -15.625 C 38.46875 -15.03125 38.65625 -14.21875 38.65625 -13.1875 C 38.65625 -11.207031 38.1875 -9.675781 37.25 -8.59375 C 35.414062 -6.363281 32.832031 -4.3125 29.5 -2.4375 C 26.175781 -0.5625 22.613281 0.375 18.8125 0.375 C 13.625 0.375 9.597656 -1.03125 6.734375 -3.84375 C 3.867188 -6.664062 2.4375 -10.519531 2.4375 -15.40625 C 2.4375 -18.8125 3.148438 -21.984375 4.578125 -24.921875 C 6.015625 -27.859375 8.003906 -30.1875 10.546875 -31.90625 C 13.085938 -33.632812 15.960938 -34.5 19.171875 -34.5 C 22.035156 -34.5 24.332031 -33.644531 26.0625 -31.9375 C 27.789062 -30.238281 28.65625 -27.9375 28.65625 -25.03125 C 28.65625 -21.625 27.429688 -18.695312 24.984375 -16.25 C 22.546875 -13.8125 18.414062 -11.875 12.59375 -10.4375 C 13.820312 -8.164062 16.164062 -7.03125 19.625 -7.03125 C 21.84375 -7.03125 24.367188 -7.804688 27.203125 -9.359375 C 30.046875 -10.921875 32.503906 -12.957031 34.578125 -15.46875 C 35.171875 -16.164062 35.835938 -16.515625 36.578125 -16.515625 Z M 17.921875 -27.25 C 16.085938 -27.25 14.539062 -26.1875 13.28125 -24.0625 C 12.03125 -21.9375 11.40625 -19.367188 11.40625 -16.359375 L 11.40625 -16.21875 C 14.3125 -16.90625 16.601562 -17.941406 18.28125 -19.328125 C 19.96875 -20.710938 20.8125 -22.316406 20.8125 -24.140625 C 20.8125 -25.078125 20.550781 -25.828125 20.03125 -26.390625 C 19.507812 -26.960938 18.804688 -27.25 17.921875 -27.25 Z M 17.921875 -27.25 "/></g></g></g><g fill="#7f22fe" fill-opacity="1"><g transform="translate(81.633583, 86.37893)"><g><path d="M 42.953125 -22.734375 C 43.585938 -22.734375 44.078125 -22.410156 44.421875 -21.765625 C 44.773438 -21.128906 44.953125 -20.316406 44.953125 -19.328125 C 44.953125 -18.085938 44.773438 -17.132812 44.421875 -16.46875 C 44.078125 -15.800781 43.535156 -15.347656 42.796875 -15.109375 C 39.835938 -14.066406 36.582031 -13.472656 33.03125 -13.328125 C 32.039062 -9.234375 30.175781 -5.925781 27.4375 -3.40625 C 24.695312 -0.882812 21.671875 0.375 18.359375 0.375 C 13.378906 0.375 9.753906 -1.523438 7.484375 -5.328125 C 5.210938 -9.128906 4.078125 -14.632812 4.078125 -21.84375 C 4.078125 -28.207031 4.863281 -35.128906 6.4375 -42.609375 C 8.019531 -50.085938 10.328125 -56.457031 13.359375 -61.71875 C 16.398438 -66.976562 20.019531 -69.609375 24.21875 -69.609375 C 26.488281 -69.609375 28.3125 -68.628906 29.6875 -66.671875 C 31.070312 -64.722656 31.765625 -62.195312 31.765625 -59.09375 C 31.765625 -55.039062 31 -51.015625 29.46875 -47.015625 C 27.9375 -43.015625 25.394531 -38.820312 21.84375 -34.4375 C 25.15625 -34.1875 27.847656 -32.8125 29.921875 -30.3125 C 31.992188 -27.820312 33.226562 -24.753906 33.625 -21.109375 C 35.9375 -21.253906 38.695312 -21.742188 41.90625 -22.578125 C 42.207031 -22.679688 42.554688 -22.734375 42.953125 -22.734375 Z M 22.515625 -62.265625 C 21.523438 -62.265625 20.445312 -60.796875 19.28125 -57.859375 C 18.125 -54.929688 17.050781 -50.945312 16.0625 -45.90625 C 15.082031 -40.875 14.34375 -35.367188 13.84375 -29.390625 C 17.101562 -35.367188 19.707031 -40.640625 21.65625 -45.203125 C 23.601562 -49.773438 24.578125 -53.835938 24.578125 -57.390625 C 24.578125 -58.960938 24.390625 -60.164062 24.015625 -61 C 23.648438 -61.84375 23.148438 -62.265625 22.515625 -62.265625 Z M 18.65625 -7.484375 C 20.1875 -7.484375 21.546875 -8.125 22.734375 -9.40625 C 23.921875 -10.6875 24.710938 -12.535156 25.109375 -14.953125 C 23.578125 -15.992188 22.398438 -17.351562 21.578125 -19.03125 C 20.765625 -20.707031 20.359375 -22.484375 20.359375 -24.359375 C 20.359375 -25.046875 20.457031 -25.984375 20.65625 -27.171875 L 20.4375 -27.171875 C 18.414062 -27.171875 16.722656 -26.171875 15.359375 -24.171875 C 14.003906 -22.171875 13.328125 -19.492188 13.328125 -16.140625 C 13.328125 -13.328125 13.859375 -11.179688 14.921875 -9.703125 C 15.984375 -8.222656 17.226562 -7.484375 18.65625 -7.484375 Z M 18.65625 -7.484375 "/></g></g></g><g fill="#7f22fe" fill-opacity="1"><g transform="translate(116.657266, 86.37893)"><g><path d="M 33.09375 -20.734375 C 34.476562 -20.734375 35.171875 -19.695312 35.171875 -17.625 C 35.171875 -13.726562 32.109375 -11.78125 25.984375 -11.78125 C 24.804688 -11.78125 23.101562 -12 20.875 -12.4375 C 21.519531 -9.375 22.050781 -5.976562 22.46875 -2.25 C 22.894531 1.46875 23.109375 4.535156 23.109375 6.953125 C 23.109375 12.285156 22.242188 16.359375 20.515625 19.171875 C 18.785156 21.992188 16.515625 23.40625 13.703125 23.40625 C 10.148438 23.40625 7.617188 20.882812 6.109375 15.84375 C 4.597656 10.8125 3.84375 3.210938 3.84375 -6.953125 C 3.84375 -16.429688 4.867188 -26.046875 6.921875 -35.796875 C 8.972656 -45.546875 11.785156 -53.617188 15.359375 -60.015625 C 18.941406 -66.410156 22.878906 -69.609375 27.171875 -69.609375 C 29.492188 -69.609375 31.304688 -68.570312 32.609375 -66.5 C 33.921875 -64.425781 34.578125 -61.632812 34.578125 -58.125 C 34.578125 -46.519531 27.640625 -33.882812 13.765625 -20.21875 C 13.273438 -15.375 13.03125 -11.128906 13.03125 -7.484375 C 13.03125 -2.398438 13.203125 2.816406 13.546875 8.171875 C 13.890625 13.535156 14.457031 16.21875 15.25 16.21875 C 16.726562 16.21875 17.46875 13.648438 17.46875 8.515625 C 17.46875 4.660156 17.207031 0.929688 16.6875 -2.671875 C 16.175781 -6.273438 15.476562 -10.070312 14.59375 -14.0625 C 14.539062 -14.707031 14.75 -15.523438 15.21875 -16.515625 C 15.6875 -17.503906 16.265625 -18.367188 16.953125 -19.109375 C 17.648438 -19.847656 18.269531 -20.21875 18.8125 -20.21875 C 19.789062 -20.21875 20.972656 -20.164062 22.359375 -20.0625 C 22.804688 -20.019531 23.328125 -20 23.921875 -20 C 25.890625 -20 28.082031 -20.171875 30.5 -20.515625 C 30.894531 -20.554688 31.316406 -20.601562 31.765625 -20.65625 C 32.210938 -20.707031 32.65625 -20.734375 33.09375 -20.734375 Z M 25.625 -62.265625 C 24.726562 -62.265625 23.625 -60.757812 22.3125 -57.75 C 21.007812 -54.738281 19.71875 -50.753906 18.4375 -45.796875 C 17.15625 -40.835938 16.046875 -35.59375 15.109375 -30.0625 C 19.054688 -34.550781 22.085938 -39.226562 24.203125 -44.09375 C 26.328125 -48.957031 27.414062 -53.507812 27.46875 -57.75 C 27.46875 -60.757812 26.851562 -62.265625 25.625 -62.265625 Z M 25.625 -62.265625 "/></g></g></g><g fill="#7f22fe" fill-opacity="1"><g transform="translate(144.128264, 86.37893)"><g><path d="M 41.3125 -22.734375 C 41.957031 -22.734375 42.453125 -22.410156 42.796875 -21.765625 C 43.140625 -21.128906 43.3125 -20.316406 43.3125 -19.328125 C 43.3125 -16.953125 42.597656 -15.546875 41.171875 -15.109375 C 38.210938 -14.066406 34.953125 -13.472656 31.390625 -13.328125 C 30.453125 -9.179688 28.601562 -5.859375 25.84375 -3.359375 C 23.082031 -0.867188 19.945312 0.375 16.4375 0.375 C 13.476562 0.375 10.945312 -0.335938 8.84375 -1.765625 C 6.75 -3.203125 5.15625 -5.101562 4.0625 -7.46875 C 2.976562 -9.84375 2.4375 -12.410156 2.4375 -15.171875 C 2.4375 -18.929688 3.148438 -22.28125 4.578125 -25.21875 C 6.015625 -28.15625 7.992188 -30.445312 10.515625 -32.09375 C 13.035156 -33.75 15.820312 -34.578125 18.875 -34.578125 C 22.632812 -34.578125 25.660156 -33.28125 27.953125 -30.6875 C 30.242188 -28.101562 31.585938 -24.910156 31.984375 -21.109375 C 34.304688 -21.253906 37.070312 -21.742188 40.28125 -22.578125 C 40.675781 -22.679688 41.019531 -22.734375 41.3125 -22.734375 Z M 17.03125 -7.484375 C 18.613281 -7.484375 19.984375 -8.125 21.140625 -9.40625 C 22.296875 -10.6875 23.070312 -12.535156 23.46875 -14.953125 C 21.9375 -15.992188 20.765625 -17.351562 19.953125 -19.03125 C 19.140625 -20.707031 18.734375 -22.484375 18.734375 -24.359375 C 18.734375 -25.148438 18.804688 -25.941406 18.953125 -26.734375 L 18.578125 -26.734375 C 16.609375 -26.734375 14.96875 -25.78125 13.65625 -23.875 C 12.351562 -21.976562 11.703125 -19.300781 11.703125 -15.84375 C 11.703125 -13.132812 12.234375 -11.0625 13.296875 -9.625 C 14.359375 -8.195312 15.601562 -7.484375 17.03125 -7.484375 Z M 17.03125 -7.484375 "/></g></g></g><g fill="#7f22fe" fill-opacity="1"><g transform="translate(177.522949, 86.37893)"><g><path d="M 31.625 -16.515625 C 32.257812 -16.515625 32.757812 -16.21875 33.125 -15.625 C 33.5 -15.03125 33.6875 -14.21875 33.6875 -13.1875 C 33.6875 -11.207031 33.21875 -9.675781 32.28125 -8.59375 C 30.15625 -5.976562 27.847656 -3.828125 25.359375 -2.140625 C 22.867188 -0.460938 20.039062 0.375 16.875 0.375 C 12.53125 0.375 9.3125 -1.597656 7.21875 -5.546875 C 5.125 -9.503906 4.078125 -14.613281 4.078125 -20.875 C 4.078125 -26.90625 4.851562 -33.769531 6.40625 -41.46875 C 7.957031 -49.164062 10.25 -55.78125 13.28125 -61.3125 C 16.320312 -66.84375 19.941406 -69.609375 24.140625 -69.609375 C 26.503906 -69.609375 28.363281 -68.507812 29.71875 -66.3125 C 31.082031 -64.113281 31.765625 -60.96875 31.765625 -56.875 C 31.765625 -51 30.132812 -44.1875 26.875 -36.4375 C 23.613281 -28.6875 19.195312 -21.007812 13.625 -13.40625 C 13.96875 -11.375 14.535156 -9.925781 15.328125 -9.0625 C 16.117188 -8.207031 17.15625 -7.78125 18.4375 -7.78125 C 20.457031 -7.78125 22.234375 -8.359375 23.765625 -9.515625 C 25.296875 -10.671875 27.25 -12.65625 29.625 -15.46875 C 30.207031 -16.164062 30.875 -16.515625 31.625 -16.515625 Z M 22.515625 -62.265625 C 21.378906 -62.265625 20.09375 -60.21875 18.65625 -56.125 C 17.226562 -52.03125 15.96875 -46.945312 14.875 -40.875 C 13.789062 -34.800781 13.203125 -28.976562 13.109375 -23.40625 C 16.609375 -29.175781 19.394531 -34.960938 21.46875 -40.765625 C 23.539062 -46.566406 24.578125 -51.859375 24.578125 -56.640625 C 24.578125 -60.390625 23.890625 -62.265625 22.515625 -62.265625 Z M 22.515625 -62.265625 "/></g></g></g><g fill="#7f22fe" fill-opacity="1"><g transform="translate(201.661889, 86.37893)"><g><path d="M 13.25 -39.390625 C 11.175781 -39.390625 9.617188 -39.867188 8.578125 -40.828125 C 7.546875 -41.796875 7.03125 -43.144531 7.03125 -44.875 C 7.03125 -46.601562 7.707031 -48.046875 9.0625 -49.203125 C 10.425781 -50.359375 12.117188 -50.9375 14.140625 -50.9375 C 15.960938 -50.9375 17.441406 -50.492188 18.578125 -49.609375 C 19.710938 -48.722656 20.28125 -47.460938 20.28125 -45.828125 C 20.28125 -43.859375 19.640625 -42.289062 18.359375 -41.125 C 17.078125 -39.96875 15.375 -39.390625 13.25 -39.390625 Z M 12.65625 0.375 C 9.445312 0.375 7.113281 -0.757812 5.65625 -3.03125 C 4.207031 -5.300781 3.484375 -8.3125 3.484375 -12.0625 C 3.484375 -14.289062 3.765625 -17.144531 4.328125 -20.625 C 4.898438 -24.101562 5.628906 -27.347656 6.515625 -30.359375 C 6.960938 -31.941406 7.554688 -33.023438 8.296875 -33.609375 C 9.035156 -34.203125 10.21875 -34.5 11.84375 -34.5 C 14.363281 -34.5 15.625 -33.660156 15.625 -31.984375 C 15.625 -30.753906 15.15625 -27.894531 14.21875 -23.40625 C 13.03125 -17.96875 12.4375 -14.285156 12.4375 -12.359375 C 12.4375 -10.878906 12.632812 -9.742188 13.03125 -8.953125 C 13.425781 -8.171875 14.09375 -7.78125 15.03125 -7.78125 C 15.914062 -7.78125 17.023438 -8.394531 18.359375 -9.625 C 19.691406 -10.863281 21.46875 -12.8125 23.6875 -15.46875 C 24.28125 -16.164062 24.945312 -16.515625 25.6875 -16.515625 C 26.332031 -16.515625 26.835938 -16.21875 27.203125 -15.625 C 27.578125 -15.03125 27.765625 -14.21875 27.765625 -13.1875 C 27.765625 -11.207031 27.296875 -9.675781 26.359375 -8.59375 C 21.472656 -2.613281 16.90625 0.375 12.65625 0.375 Z M 12.65625 0.375 "/></g></g></g><g fill="#7f22fe" fill-opacity="1"><g transform="translate(219.877169, 86.37893)"><g><path d="M 41.3125 -22.734375 C 41.957031 -22.734375 42.453125 -22.410156 42.796875 -21.765625 C 43.140625 -21.128906 43.3125 -20.316406 43.3125 -19.328125 C 43.3125 -16.953125 42.597656 -15.546875 41.171875 -15.109375 C 38.210938 -14.066406 34.953125 -13.472656 31.390625 -13.328125 C 30.453125 -9.179688 28.601562 -5.859375 25.84375 -3.359375 C 23.082031 -0.867188 19.945312 0.375 16.4375 0.375 C 13.476562 0.375 10.945312 -0.335938 8.84375 -1.765625 C 6.75 -3.203125 5.15625 -5.101562 4.0625 -7.46875 C 2.976562 -9.84375 2.4375 -12.410156 2.4375 -15.171875 C 2.4375 -18.929688 3.148438 -22.28125 4.578125 -25.21875 C 6.015625 -28.15625 7.992188 -30.445312 10.515625 -32.09375 C 13.035156 -33.75 15.820312 -34.578125 18.875 -34.578125 C 22.632812 -34.578125 25.660156 -33.28125 27.953125 -30.6875 C 30.242188 -28.101562 31.585938 -24.910156 31.984375 -21.109375 C 34.304688 -21.253906 37.070312 -21.742188 40.28125 -22.578125 C 40.675781 -22.679688 41.019531 -22.734375 41.3125 -22.734375 Z M 17.03125 -7.484375 C 18.613281 -7.484375 19.984375 -8.125 21.140625 -9.40625 C 22.296875 -10.6875 23.070312 -12.535156 23.46875 -14.953125 C 21.9375 -15.992188 20.765625 -17.351562 19.953125 -19.03125 C 19.140625 -20.707031 18.734375 -22.484375 18.734375 -24.359375 C 18.734375 -25.148438 18.804688 -25.941406 18.953125 -26.734375 L 18.578125 -26.734375 C 16.609375 -26.734375 14.96875 -25.78125 13.65625 -23.875 C 12.351562 -21.976562 11.703125 -19.300781 11.703125 -15.84375 C 11.703125 -13.132812 12.234375 -11.0625 13.296875 -9.625 C 14.359375 -8.195312 15.601562 -7.484375 17.03125 -7.484375 Z M 17.03125 -7.484375 "/></g></g></g></g></g></g></g></g></g></svg>